# xmcd CD database file
#
# Track frame offsets:
#	150
#	24608
#	57641
#	92621
#	118043
#	147951
#	179498
#	207431
#
# Disc length: 3096 seconds
#
# Revision: 0
# Processed by: cddbd v1.5.2PL0 Copyright (c) Steve Scherf et al.
# Submitted via: CDex 1.81
#
DISCID=760c1608
DTITLE=Breach Trio - Borders
DYEAR=2012
DGENRE=Jazz
TTITLE0=Makedonsko
TTITLE1=I Smell Something
TTITLE2=Judgement
TTITLE3=Song Without A Voice
TTITLE4=In The Eye
TTITLE5=Borders
TTITLE6=Harrumph
TTITLE7=Theories (Part 2)
EXTD=YEAR: 2012
EXTT0=
EXTT1=
EXTT2=
EXTT3=
EXTT4=
EXTT5=
EXTT6=
EXTT7=
PLAYORDER=
